<?xml version="1.0" encoding="UTF-8"?>
<svg xmlns="http://www.w3.org/2000/svg" xmlns:xlink="http://www.w3.org/1999/xlink" viewBox="0 0 140 140">
  <defs>
    <style>
      .cls-1 {
        fill: #2da0c4;
      }

      .cls-2 {
        fill: #49a6c7;
      }

      .cls-3 {
        fill: #c6dce9;
      }

      .cls-4 {
        fill: #71b3d0;
      }

      .cls-5 {
        fill: #f6f9fb;
      }

      .cls-6 {
        fill: #bdd7e6;
      }

      .cls-7 {
        fill: #c8ddea;
      }

      .cls-8 {
        fill: #b3d2e3;
      }

      .cls-9 {
        fill: #b1d1e2;
      }

      .cls-10 {
        fill: #51a8c9;
      }

      .cls-11 {
        fill: #4ca6c8;
      }

      .cls-12 {
        fill: #e2ecf2;
      }

      .cls-13 {
        fill: #249ec3;
      }

      .cls-14 {
        fill: #1e9ec2;
      }

      .cls-15 {
        fill: #9ec7dc;
      }

      .cls-16 {
        fill: #abcee1;
      }

      .cls-17 {
        fill: #39a2c5;
      }

      .cls-18 {
        fill: #d2e3ed;
      }

      .cls-19 {
        fill: #0bbcdf;
      }

      .cls-20 {
        fill: #81b9d4;
      }

      .cls-21 {
        fill: #a9cde0;
      }

      .cls-22 {
        fill: #73b3d0;
      }

      .cls-23 {
        fill: #68afce;
      }

      .cls-24 {
        fill: #dae7ef;
      }

      .cls-25 {
        fill: #8cbfd7;
      }

      .cls-26 {
        fill: #3da3c5;
      }

      .cls-27 {
        fill: #5daccb;
      }

      .cls-28 {
        fill: #6ab0ce;
      }

      .cls-29 {
        fill: #79b6d2;
      }

      .cls-30 {
        fill: #ecf2f6;
      }

      .cls-31 {
        fill: #90c0d8;
      }

      .cls-32 {
        fill: #c1d9e7;
      }

      .cls-33 {
        fill: #7db8d3;
      }

      .cls-34 {
        fill: #d6e5ee;
      }

      .cls-35 {
        fill: #fff;
      }

      .cls-36 {
        fill: #66afcd;
      }

      .cls-37 {
        fill: #c4dbe8;
      }

      .cls-38 {
        fill: none;
      }

      .cls-39 {
        fill: #a0c8dd;
      }

      .cls-40 {
        fill: #179dc2;
      }

      .cls-41 {
        fill: #58aaca;
      }

      .cls-42 {
        fill: #c3dae8;
      }

      .cls-43 {
        fill: #f2f6f9;
      }

      .cls-44 {
        fill: #7fb8d4;
      }

      .cls-45 {
        fill: #46a5c7;
      }

      .cls-46 {
        fill: #cee0ec;
      }

      .cls-47 {
        fill: #96c3da;
      }

      .cls-48 {
        fill: #36a1c5;
      }

      .cls-49 {
        fill: #fbfdfe;
      }

      .cls-50 {
        fill: #bbd6e5;
      }

      .cls-51 {
        fill: #a7ccdf;
      }

      .cls-52 {
        fill: #dce8f0;
      }

      .cls-53 {
        fill: #adcfe1;
      }

      .cls-54 {
        fill: #8abed7;
      }

      .cls-55 {
        fill: #77b5d1;
      }

      .cls-56 {
        fill: #e8eff5;
      }

      .cls-57 {
        fill: #7bb7d2;
      }

      .cls-58 {
        fill: #b5d3e3;
      }

      .cls-59 {
        fill: #5faccc;
      }

      .cls-60 {
        isolation: isolate;
      }

      .cls-61 {
        fill: #b9d5e5;
      }

      .cls-62 {
        fill: #92c1d9;
      }

      .cls-63 {
        fill: #75b4d1;
      }

      .cls-64 {
        fill: #eef3f7;
      }

      .cls-65 {
        fill: #94c2da;
      }

      .cls-66 {
        fill: #e6eef4;
      }

      .cls-67 {
        fill: #f0f5f8;
      }

      .cls-68 {
        fill: #64aecd;
      }

      .cls-69 {
        fill: #a2c9de;
      }

      .cls-70 {
        fill: #6cb1cf;
      }

      .cls-71 {
        fill: #88bdd6;
      }

      .cls-72 {
        fill: #0d9cc1;
      }

      .cls-73 {
        fill: #d8e6ef;
      }

      .cls-74 {
        fill: #f4f8fa;
      }

      .cls-75 {
        fill: #43a4c6;
      }

      .cls-76 {
        fill: #53a9c9;
      }

      .cls-77 {
        mix-blend-mode: multiply;
      }

      .cls-78 {
        fill: #9cc6dc;
      }

      .cls-79 {
        fill: #b7d4e4;
      }

      .cls-80 {
        fill: #a3cade;
      }

      .cls-81 {
        fill: #299fc3;
      }

      .cls-82 {
        fill: #dee9f1;
      }

      .cls-83 {
        fill: #5babcb;
      }

      .cls-84 {
        fill: #86bcd6;
      }

      .cls-85 {
        fill: #f9fbfc;
      }

      .cls-86 {
        fill: #56a9ca;
      }

      .cls-87 {
        fill: #4ea7c8;
      }

      .cls-88 {
        fill: #ccdfeb;
      }

      .cls-89 {
        fill: #8ebfd8;
      }

      .cls-90 {
        fill: #afd0e2;
      }

      .cls-91 {
        fill: #e4edf3;
      }

      .cls-92 {
        fill: #e0ebf2;
      }

      .cls-93 {
        fill: #a5cbdf;
      }

      .cls-94 {
        fill: #32a0c4;
      }

      .cls-95 {
        fill: #eaf1f5;
      }

      .cls-96 {
        fill: #bfd8e7;
      }

      .cls-97 {
        fill: #d4e4ed;
      }

      .cls-98 {
        fill: #98c4db;
      }

      .cls-99 {
        clip-path: url(#clippath);
      }

      .cls-100 {
        fill: #cadeea;
      }

      .cls-101 {
        fill: #62adcc;
      }

      .cls-102 {
        fill: #40a3c6;
      }

      .cls-103 {
        fill: #6eb2cf;
      }

      .cls-104 {
        fill: #84bbd5;
      }

      .cls-105 {
        fill: #82bad5;
      }

      .cls-106 {
        fill: #d0e2ec;
      }

      .cls-107 {
        fill: #9ac5db;
      }
    </style>
    <clipPath id="clippath">
      <path class="cls-38" d="M70,.52h0C31.63.52.52,31.63.52,70h0c0,24.3,12.49,45.68,31.38,58.09,8.41-12.02,22.35-19.9,38.1-19.9,20.31,0,37.61,13.1,43.92,31.29h25.56v-69.48C139.48,31.63,108.37.52,70,.52ZM100.99,70.66c0,16.75-13.58,30.33-30.33,30.33s-31.13-13.2-31.63-30.05c-.52-17.51,13.58-31.93,30.97-31.93s30.99,13.9,30.99,30.99v.66Z"/>
    </clipPath>
  </defs>
  <g class="cls-60">
    <g id="Layer_1">
      <g>
        <path class="cls-19" d="M70,.52h0C31.63.52.52,31.63.52,70h0c0,24.3,12.49,45.68,31.38,58.09,8.41-12.02,22.35-19.9,38.1-19.9,20.31,0,37.61,13.1,43.92,31.29h25.56v-69.48C139.48,31.63,108.37.52,70,.52ZM100.99,70.66c0,16.75-13.58,30.33-30.33,30.33s-31.13-13.2-31.63-30.05c-.52-17.51,13.58-31.93,30.97-31.93s30.99,13.9,30.99,30.99v.66Z"/>
        <g class="cls-99">
          <g class="cls-77">
            <path class="cls-35" d="M108.49,77.5c17.09,0,30.99,13.9,30.99,30.99v.66c0,16.75-13.58,30.33-30.33,30.33h0c-16.86,0-31.13-13.2-31.63-30.05-.52-17.51,13.58-31.93,30.97-31.93"/>
            <path class="cls-49" d="M108.11,77.12c17.09,0,30.99,13.9,30.99,30.99v.66c0,16.75-13.58,30.33-30.33,30.33h0c-16.86,0-31.13-13.2-31.63-30.05-.52-17.51,13.58-31.93,30.97-31.93"/>
            <path class="cls-85" d="M107.73,76.74c17.09,0,30.99,13.9,30.99,30.99v.66c0,16.75-13.58,30.33-30.33,30.33h0c-16.86,0-31.13-13.19-31.63-30.05-.52-17.51,13.58-31.93,30.97-31.93"/>
            <path class="cls-5" d="M107.35,76.36c17.09,0,30.99,13.9,30.99,30.99v.66c0,16.75-13.58,30.33-30.33,30.33h0c-16.86,0-31.13-13.19-31.63-30.05-.52-17.51,13.57-31.92,30.97-31.92"/>
            <path class="cls-74" d="M106.97,75.98c17.09,0,30.98,13.9,30.98,30.98v.66c0,16.75-13.58,30.33-30.33,30.33h0c-16.86,0-31.13-13.19-31.63-30.05-.52-17.51,13.57-31.92,30.97-31.92"/>
            <path class="cls-43" d="M106.59,75.6c17.08,0,30.98,13.9,30.98,30.98v.66c0,16.75-13.58,30.32-30.32,30.32h0c-16.86,0-31.13-13.19-31.63-30.05-.52-17.51,13.57-31.92,30.97-31.92"/>
            <path class="cls-67" d="M106.21,75.22c17.08,0,30.98,13.9,30.98,30.98v.66c0,16.75-13.58,30.32-30.32,30.32h0c-16.86,0-31.13-13.19-31.63-30.05-.52-17.51,13.57-31.92,30.97-31.92"/>
            <path class="cls-64" d="M105.82,74.84c17.08,0,30.98,13.9,30.98,30.98v.66c0,16.75-13.58,30.32-30.32,30.32h0c-16.86,0-31.13-13.19-31.63-30.04-.52-17.51,13.57-31.92,30.97-31.92"/>
            <path class="cls-30" d="M105.44,74.46c17.08,0,30.98,13.9,30.98,30.98v.66c0,16.75-13.58,30.32-30.32,30.32h0c-16.86,0-31.13-13.19-31.63-30.04-.52-17.51,13.57-31.92,30.97-31.92"/>
            <path class="cls-95" d="M105.06,74.08c17.08,0,30.98,13.9,30.98,30.98v.66c0,16.75-13.58,30.32-30.32,30.32h0c-16.86,0-31.13-13.19-31.63-30.04-.52-17.51,13.57-31.92,30.97-31.92"/>
            <path class="cls-56" d="M104.68,73.7c17.08,0,30.98,13.9,30.98,30.98v.66c0,16.75-13.57,30.32-30.32,30.32h0c-16.86,0-31.12-13.19-31.62-30.04-.52-17.51,13.57-31.92,30.97-31.92"/>
            <path class="cls-66" d="M104.3,73.32c17.08,0,30.98,13.9,30.98,30.98v.66c0,16.74-13.57,30.32-30.32,30.32h0c-16.86,0-31.12-13.19-31.62-30.04-.52-17.51,13.57-31.92,30.96-31.92"/>
            <path class="cls-91" d="M103.92,72.94c17.08,0,30.98,13.9,30.98,30.98v.66c0,16.74-13.57,30.32-30.32,30.32h0c-16.86,0-31.12-13.19-31.62-30.04-.52-17.51,13.57-31.92,30.96-31.92"/>
            <path class="cls-12" d="M103.54,72.56c17.08,0,30.98,13.9,30.98,30.98v.66c0,16.74-13.57,30.32-30.32,30.32h0c-16.86,0-31.12-13.19-31.62-30.04-.52-17.51,13.57-31.91,30.96-31.91"/>
            <path class="cls-92" d="M103.16,72.18c17.08,0,30.98,13.9,30.98,30.98v.66c0,16.74-13.57,30.32-30.32,30.32h0c-16.86,0-31.12-13.19-31.62-30.04-.52-17.51,13.57-31.91,30.96-31.91"/>
            <path class="cls-82" d="M102.78,71.8c17.08,0,30.97,13.9,30.97,30.97v.66c0,16.74-13.57,30.32-30.32,30.32h0c-16.85,0-31.12-13.19-31.62-30.04-.52-17.51,13.57-31.91,30.96-31.91"/>
            <path class="cls-52" d="M102.39,71.42c17.08,0,30.97,13.89,30.97,30.97v.66c0,16.74-13.57,30.31-30.31,30.31h0c-16.85,0-31.12-13.19-31.62-30.04-.52-17.51,13.57-31.91,30.96-31.91"/>
            <path class="cls-24" d="M102.01,71.04c17.08,0,30.97,13.89,30.97,30.97v.66c0,16.74-13.57,30.31-30.31,30.31h0c-16.85,0-31.12-13.19-31.62-30.04-.52-17.5,13.57-31.91,30.96-31.91"/>
            <path class="cls-73" d="M101.63,70.66c17.08,0,30.97,13.89,30.97,30.97v.66c0,16.74-13.57,30.31-30.31,30.31h0c-16.85,0-31.12-13.19-31.62-30.03-.52-17.5,13.57-31.91,30.96-31.91"/>
            <path class="cls-34" d="M101.25,70.28c17.08,0,30.97,13.89,30.97,30.97v.66c0,16.74-13.57,30.31-30.31,30.31h0c-16.85,0-31.12-13.19-31.62-30.03-.52-17.5,13.57-31.91,30.96-31.91"/>
            <path class="cls-97" d="M100.87,69.9c17.08,0,30.97,13.89,30.97,30.97v.66c0,16.74-13.57,30.31-30.31,30.31h0c-16.85,0-31.12-13.19-31.62-30.03-.52-17.5,13.57-31.91,30.96-31.91"/>
            <path class="cls-18" d="M100.49,69.52c17.08,0,30.97,13.89,30.97,30.97v.66c0,16.74-13.57,30.31-30.31,30.31h0c-16.85,0-31.11-13.19-31.61-30.03-.52-17.5,13.57-31.91,30.96-31.91"/>
            <path class="cls-106" d="M100.11,69.14c17.08,0,30.97,13.89,30.97,30.97v.66c0,16.74-13.57,30.31-30.31,30.31h0c-16.85,0-31.11-13.19-31.61-30.03-.52-17.5,13.57-31.91,30.95-31.91"/>
            <path class="cls-46" d="M99.73,68.76c17.08,0,30.97,13.89,30.97,30.97v.66c0,16.74-13.57,30.31-30.31,30.31h0c-16.85,0-31.11-13.19-31.61-30.03-.52-17.5,13.57-31.91,30.95-31.91"/>
            <path class="cls-88" d="M99.35,68.38c17.08,0,30.97,13.89,30.97,30.97v.66c0,16.74-13.57,30.31-30.31,30.31h0c-16.85,0-31.11-13.19-31.61-30.03-.52-17.5,13.57-31.9,30.95-31.9"/>
            <path class="cls-100" d="M98.96,68c17.07,0,30.97,13.89,30.97,30.97v.66c0,16.74-13.57,30.31-30.31,30.31h0c-16.85,0-31.11-13.19-31.61-30.03-.52-17.5,13.57-31.9,30.95-31.9"/>
            <path class="cls-7" d="M98.58,67.62c17.07,0,30.96,13.89,30.96,30.96v.66c0,16.74-13.57,30.31-30.31,30.31h0c-16.85,0-31.11-13.19-31.61-30.03-.52-17.5,13.57-31.9,30.95-31.9"/>
            <path class="cls-3" d="M98.2,67.24c17.07,0,30.96,13.89,30.96,30.96v.66c0,16.74-13.57,30.3-30.3,30.3h0c-16.85,0-31.11-13.19-31.61-30.03-.52-17.5,13.56-31.9,30.95-31.9"/>
            <path class="cls-37" d="M97.82,66.86c17.07,0,30.96,13.89,30.96,30.96v.66c0,16.74-13.57,30.3-30.3,30.3h0c-16.85,0-31.11-13.18-31.61-30.03s13.56-31.9,30.95-31.9"/>
            <path class="cls-42" d="M97.44,66.48c17.07,0,30.96,13.89,30.96,30.96v.66c0,16.74-13.57,30.3-30.3,30.3h0c-16.85,0-31.11-13.18-31.61-30.02-.52-17.5,13.56-31.9,30.95-31.9"/>
            <path class="cls-32" d="M97.06,66.1c17.07,0,30.96,13.89,30.96,30.96v.66c0,16.74-13.57,30.3-30.3,30.3h0c-16.85,0-31.11-13.18-31.61-30.02s13.56-31.9,30.95-31.9"/>
            <path class="cls-96" d="M96.68,65.72c17.07,0,30.96,13.89,30.96,30.96v.66c0,16.73-13.57,30.3-30.3,30.3h0c-16.85,0-31.11-13.18-31.61-30.02-.52-17.5,13.56-31.9,30.95-31.9"/>
            <path class="cls-6" d="M96.3,65.34c17.07,0,30.96,13.89,30.96,30.96v.66c0,16.73-13.57,30.3-30.3,30.3h0c-16.85,0-31.1-13.18-31.6-30.02-.52-17.5,13.56-31.9,30.95-31.9"/>
            <path class="cls-50" d="M95.92,64.96c17.07,0,30.96,13.89,30.96,30.96v.66c0,16.73-13.57,30.3-30.3,30.3h0c-16.85,0-31.1-13.18-31.6-30.02-.52-17.5,13.56-31.9,30.94-31.9"/>
            <path class="cls-61" d="M95.53,64.58c17.07,0,30.96,13.89,30.96,30.96v.66c0,16.73-13.57,30.3-30.3,30.3h0c-16.85,0-31.1-13.18-31.6-30.02-.52-17.5,13.56-31.89,30.94-31.89"/>
            <path class="cls-79" d="M95.15,64.2c17.07,0,30.96,13.89,30.96,30.96v.66c0,16.73-13.56,30.3-30.3,30.3h0c-16.84,0-31.1-13.18-31.6-30.02-.52-17.5,13.56-31.89,30.94-31.89"/>
            <path class="cls-58" d="M94.77,63.82c17.07,0,30.96,13.89,30.96,30.96v.66c0,16.73-13.56,30.3-30.3,30.3h0c-16.84,0-31.1-13.18-31.6-30.02-.52-17.49,13.56-31.89,30.94-31.89"/>
            <path class="cls-8" d="M94.39,63.44c17.07,0,30.95,13.89,30.95,30.95v.66c0,16.73-13.56,30.3-30.3,30.3h0c-16.84,0-31.1-13.18-31.6-30.02-.52-17.49,13.56-31.89,30.94-31.89"/>
            <path class="cls-9" d="M94.01,63.06c17.07,0,30.95,13.89,30.95,30.95v.66c0,16.73-13.56,30.29-30.29,30.29h0c-16.84,0-31.1-13.18-31.6-30.02s13.56-31.89,30.94-31.89"/>
            <path class="cls-90" d="M93.63,62.68c17.07,0,30.95,13.89,30.95,30.95v.66c0,16.73-13.56,30.29-30.29,30.29h0c-16.84,0-31.1-13.18-31.6-30.02-.52-17.49,13.56-31.89,30.94-31.89"/>
            <path class="cls-53" d="M93.25,62.3c17.07,0,30.95,13.88,30.95,30.95v.66c0,16.73-13.56,30.29-30.29,30.29h0c-16.84,0-31.1-13.18-31.6-30.01s13.56-31.89,30.94-31.89"/>
            <path class="cls-16" d="M92.87,61.92c17.07,0,30.95,13.88,30.95,30.95v.66c0,16.73-13.56,30.29-30.29,30.29h0c-16.84,0-31.1-13.18-31.6-30.01s13.56-31.89,30.94-31.89"/>
            <path class="cls-21" d="M92.49,61.54c17.07,0,30.95,13.88,30.95,30.95v.66c0,16.73-13.56,30.29-30.29,30.29h0c-16.84,0-31.09-13.18-31.59-30.01-.52-17.49,13.56-31.89,30.94-31.89"/>
            <path class="cls-51" d="M92.1,61.16c17.07,0,30.95,13.88,30.95,30.95v.66c0,16.73-13.56,30.29-30.29,30.29h0c-16.84,0-31.09-13.18-31.59-30.01s13.56-31.89,30.94-31.89"/>
            <path class="cls-93" d="M91.72,60.77c17.06,0,30.95,13.88,30.95,30.95v.66c0,16.73-13.56,30.29-30.29,30.29h0c-16.84,0-31.09-13.18-31.59-30.01-.52-17.49,13.56-31.89,30.93-31.89"/>
            <path class="cls-80" d="M91.34,60.39c17.06,0,30.95,13.88,30.95,30.95v.66c0,16.73-13.56,30.29-30.29,30.29h0c-16.84,0-31.09-13.18-31.59-30.01-.52-17.49,13.56-31.88,30.93-31.88"/>
            <path class="cls-69" d="M90.96,60.01c17.06,0,30.95,13.88,30.95,30.95v.66c0,16.73-13.56,30.29-30.29,30.29h0c-16.84,0-31.09-13.18-31.59-30.01-.52-17.49,13.56-31.88,30.93-31.88"/>
            <path class="cls-39" d="M90.58,59.63c17.06,0,30.95,13.88,30.95,30.95v.66c0,16.73-13.56,30.29-30.29,30.29h0c-16.84,0-31.09-13.18-31.59-30.01-.52-17.49,13.56-31.88,30.93-31.88"/>
            <path class="cls-15" d="M90.2,59.25c17.06,0,30.94,13.88,30.94,30.94v.66c0,16.73-13.56,30.29-30.29,30.29h0c-16.84,0-31.09-13.18-31.59-30.01s13.56-31.88,30.93-31.88"/>
            <path class="cls-78" d="M89.82,58.87c17.06,0,30.94,13.88,30.94,30.94v.66c0,16.73-13.56,30.29-30.29,30.29h0c-16.84,0-31.09-13.18-31.59-30.01-.52-17.49,13.56-31.88,30.93-31.88"/>
            <path class="cls-107" d="M89.44,58.49c17.06,0,30.94,13.88,30.94,30.94v.66c0,16.73-13.56,30.28-30.28,30.28h0c-16.84,0-31.09-13.18-31.59-30.01-.52-17.49,13.56-31.88,30.93-31.88"/>
            <path class="cls-98" d="M89.06,58.11c17.06,0,30.94,13.88,30.94,30.94v.66c0,16.72-13.56,30.28-30.28,30.28h0c-16.84,0-31.09-13.18-31.59-30-.52-17.49,13.56-31.88,30.93-31.88"/>
            <path class="cls-47" d="M88.67,57.73c17.06,0,30.94,13.88,30.94,30.94v.66c0,16.72-13.56,30.28-30.28,30.28h0c-16.84,0-31.09-13.18-31.59-30-.52-17.49,13.55-31.88,30.93-31.88"/>
            <path class="cls-65" d="M88.29,57.35c17.06,0,30.94,13.88,30.94,30.94v.66c0,16.72-13.56,30.28-30.28,30.28h0c-16.84,0-31.08-13.17-31.58-30-.52-17.49,13.55-31.88,30.93-31.88"/>
            <path class="cls-62" d="M87.91,56.97c17.06,0,30.94,13.88,30.94,30.94v.66c0,16.72-13.56,30.28-30.28,30.28h0c-16.84,0-31.08-13.17-31.58-30-.52-17.49,13.55-31.88,30.93-31.88"/>
            <path class="cls-31" d="M87.53,56.59c17.06,0,30.94,13.88,30.94,30.94v.66c0,16.72-13.56,30.28-30.28,30.28h0c-16.83,0-31.08-13.17-31.58-30-.52-17.49,13.55-31.87,30.92-31.87"/>
            <path class="cls-89" d="M87.15,56.21c17.06,0,30.94,13.88,30.94,30.94v.66c0,16.72-13.56,30.28-30.28,30.28h0c-16.83,0-31.08-13.17-31.58-30-.52-17.48,13.55-31.87,30.92-31.87"/>
            <path class="cls-25" d="M86.77,55.83c17.06,0,30.94,13.88,30.94,30.94v.66c0,16.72-13.56,30.28-30.28,30.28h0c-16.83,0-31.08-13.17-31.58-30-.52-17.48,13.55-31.87,30.92-31.87"/>
            <path class="cls-54" d="M86.39,55.45c17.06,0,30.94,13.88,30.94,30.94v.66c0,16.72-13.56,30.28-30.28,30.28h0c-16.83,0-31.08-13.17-31.58-30-.52-17.48,13.55-31.87,30.92-31.87"/>
            <path class="cls-71" d="M86.01,55.07c17.06,0,30.93,13.88,30.93,30.93v.66c0,16.72-13.56,30.28-30.28,30.28h0c-16.83,0-31.08-13.17-31.58-30-.52-17.48,13.55-31.87,30.92-31.87"/>
            <path class="cls-84" d="M85.63,54.69c17.06,0,30.93,13.88,30.93,30.93v.66c0,16.72-13.55,30.28-30.28,30.28h0c-16.83,0-31.08-13.17-31.58-30-.52-17.48,13.55-31.87,30.92-31.87"/>
            <path class="cls-104" d="M85.24,54.31c17.06,0,30.93,13.88,30.93,30.93v.66c0,16.72-13.55,30.27-30.27,30.27h0c-16.83,0-31.08-13.17-31.58-30-.52-17.48,13.55-31.87,30.92-31.87"/>
            <path class="cls-105" d="M84.86,53.93c17.06,0,30.93,13.88,30.93,30.93v.66c0,16.72-13.55,30.27-30.27,30.27h0c-16.83,0-31.08-13.17-31.58-30-.52-17.48,13.55-31.87,30.92-31.87"/>
            <path class="cls-20" d="M84.48,53.55c17.06,0,30.93,13.88,30.93,30.93v.66c0,16.72-13.55,30.27-30.27,30.27h0c-16.83,0-31.08-13.17-31.58-29.99-.52-17.48,13.55-31.87,30.92-31.87"/>
            <path class="cls-44" d="M84.1,53.17c17.05,0,30.93,13.88,30.93,30.93v.66c0,16.72-13.55,30.27-30.27,30.27h0c-16.83,0-31.07-13.17-31.57-29.99-.52-17.48,13.55-31.87,30.92-31.87"/>
            <path class="cls-33" d="M83.72,52.79c17.05,0,30.93,13.87,30.93,30.93v.66c0,16.72-13.55,30.27-30.27,30.27h0c-16.83,0-31.07-13.17-31.57-29.99-.52-17.48,13.55-31.87,30.92-31.87"/>
            <path class="cls-57" d="M83.34,52.41c17.05,0,30.93,13.87,30.93,30.93v.66c0,16.72-13.55,30.27-30.27,30.27h0c-16.83,0-31.07-13.17-31.57-29.99-.52-17.48,13.55-31.86,30.91-31.86"/>
            <path class="cls-29" d="M82.96,52.03c17.05,0,30.93,13.87,30.93,30.93v.66c0,16.72-13.55,30.27-30.27,30.27h0c-16.83,0-31.07-13.17-31.57-29.99-.52-17.48,13.55-31.86,30.91-31.86"/>
            <path class="cls-55" d="M82.58,51.65c17.05,0,30.93,13.87,30.93,30.93v.66c0,16.72-13.55,30.27-30.27,30.27h0c-16.83,0-31.07-13.17-31.57-29.99-.52-17.48,13.55-31.86,30.91-31.86"/>
            <path class="cls-63" d="M82.2,51.27c17.05,0,30.93,13.87,30.93,30.93v.66c0,16.72-13.55,30.27-30.27,30.27h0c-16.83,0-31.07-13.17-31.57-29.99-.52-17.48,13.55-31.86,30.91-31.86"/>
            <path class="cls-22" d="M81.81,50.89c17.05,0,30.92,13.87,30.92,30.92v.66c0,16.72-13.55,30.27-30.27,30.27h0c-16.83,0-31.07-13.17-31.57-29.99-.52-17.48,13.55-31.86,30.91-31.86"/>
            <path class="cls-4" d="M81.43,50.51c17.05,0,30.92,13.87,30.92,30.92v.66c0,16.72-13.55,30.27-30.27,30.27h0c-16.83,0-31.07-13.17-31.57-29.99-.52-17.48,13.55-31.86,30.91-31.86"/>
            <path class="cls-103" d="M81.05,50.13c17.05,0,30.92,13.87,30.92,30.92v.66c0,16.71-13.55,30.26-30.26,30.26h0c-16.83,0-31.07-13.17-31.57-29.99-.52-17.48,13.55-31.86,30.91-31.86"/>
            <path class="cls-70" d="M80.67,49.75c17.05,0,30.92,13.87,30.92,30.92v.66c0,16.71-13.55,30.26-30.26,30.26h0c-16.83,0-31.07-13.17-31.57-29.99-.52-17.48,13.55-31.86,30.91-31.86"/>
            <path class="cls-28" d="M80.29,49.37c17.05,0,30.92,13.87,30.92,30.92v.66c0,16.71-13.55,30.26-30.26,30.26h0c-16.83,0-31.07-13.17-31.56-29.98-.52-17.48,13.55-31.86,30.91-31.86"/>
            <path class="cls-23" d="M79.91,48.99c17.05,0,30.92,13.87,30.92,30.92v.66c0,16.71-13.55,30.26-30.26,30.26h0c-16.82,0-31.06-13.17-31.56-29.98-.52-17.47,13.55-31.86,30.91-31.86"/>
            <path class="cls-36" d="M79.53,48.61c17.05,0,30.92,13.87,30.92,30.92v.66c0,16.71-13.55,30.26-30.26,30.26h0c-16.82,0-31.06-13.17-31.56-29.98-.52-17.47,13.55-31.85,30.9-31.85"/>
            <path class="cls-68" d="M79.15,48.23c17.05,0,30.92,13.87,30.92,30.92v.66c0,16.71-13.55,30.26-30.26,30.26h0c-16.82,0-31.06-13.17-31.56-29.98-.52-17.47,13.54-31.85,30.9-31.85"/>
            <path class="cls-101" d="M78.77,47.85c17.05,0,30.92,13.87,30.92,30.92v.66c0,16.71-13.55,30.26-30.26,30.26h0c-16.82,0-31.06-13.17-31.56-29.98-.52-17.47,13.54-31.85,30.9-31.85"/>
            <path class="cls-59" d="M78.38,47.47c17.05,0,30.92,13.87,30.92,30.92v.66c0,16.71-13.55,30.26-30.26,30.26h0c-16.82,0-31.06-13.16-31.56-29.98-.52-17.47,13.54-31.85,30.9-31.85"/>
            <path class="cls-27" d="M78,47.09c17.05,0,30.92,13.87,30.92,30.91v.66c0,16.71-13.55,30.26-30.26,30.26h0c-16.82,0-31.06-13.16-31.56-29.98-.52-17.47,13.54-31.85,30.9-31.85"/>
            <path class="cls-83" d="M77.62,46.71c17.05,0,30.91,13.87,30.91,30.91v.66c0,16.71-13.55,30.26-30.26,30.26h0c-16.82,0-31.06-13.16-31.56-29.98-.52-17.47,13.54-31.85,30.9-31.85"/>
            <path class="cls-41" d="M77.24,46.33c17.05,0,30.91,13.87,30.91,30.91v.66c0,16.71-13.55,30.26-30.26,30.26h0c-16.82,0-31.06-13.16-31.56-29.98-.52-17.47,13.54-31.85,30.9-31.85"/>
            <path class="cls-86" d="M76.86,45.95c17.05,0,30.91,13.87,30.91,30.91v.66c0,16.71-13.55,30.25-30.25,30.25h0c-16.82,0-31.06-13.16-31.56-29.98-.52-17.47,13.54-31.85,30.9-31.85"/>
            <path class="cls-76" d="M76.48,45.57c17.04,0,30.91,13.87,30.91,30.91v.66c0,16.71-13.54,30.25-30.25,30.25h0c-16.82,0-31.06-13.16-31.56-29.98-.52-17.47,13.54-31.85,30.9-31.85"/>
            <path class="cls-10" d="M76.1,45.19c17.04,0,30.91,13.87,30.91,30.91v.66c0,16.71-13.54,30.25-30.25,30.25h0c-16.82,0-31.06-13.16-31.55-29.97-.52-17.47,13.54-31.85,30.9-31.85"/>
            <path class="cls-87" d="M75.72,44.81c17.04,0,30.91,13.87,30.91,30.91v.66c0,16.71-13.54,30.25-30.25,30.25h0c-16.82,0-31.05-13.16-31.55-29.97-.52-17.47,13.54-31.85,30.9-31.85"/>
            <path class="cls-11" d="M75.34,44.43c17.04,0,30.91,13.87,30.91,30.91v.66c0,16.71-13.54,30.25-30.25,30.25h0c-16.82,0-31.05-13.16-31.55-29.97-.52-17.47,13.54-31.84,30.89-31.84"/>
            <path class="cls-2" d="M74.95,44.05c17.04,0,30.91,13.87,30.91,30.91v.66c0,16.71-13.54,30.25-30.25,30.25h0c-16.82,0-31.05-13.16-31.55-29.97-.52-17.47,13.54-31.84,30.89-31.84"/>
            <path class="cls-45" d="M74.57,43.67c17.04,0,30.91,13.86,30.91,30.91v.66c0,16.71-13.54,30.25-30.25,30.25h0c-16.82,0-31.05-13.16-31.55-29.97-.52-17.47,13.54-31.84,30.89-31.84"/>
            <path class="cls-75" d="M74.19,43.29c17.04,0,30.91,13.86,30.91,30.91v.66c0,16.71-13.54,30.25-30.25,30.25h0c-16.82,0-31.05-13.16-31.55-29.97-.52-17.47,13.54-31.84,30.89-31.84"/>
            <path class="cls-102" d="M73.81,42.91c17.04,0,30.9,13.86,30.9,30.9v.66c0,16.71-13.54,30.25-30.25,30.25h0c-16.82,0-31.05-13.16-31.55-29.97-.52-17.47,13.54-31.84,30.89-31.84"/>
            <path class="cls-26" d="M73.43,42.53c17.04,0,30.9,13.86,30.9,30.9v.66c0,16.7-13.54,30.25-30.25,30.25h0c-16.82,0-31.05-13.16-31.55-29.97-.52-17.47,13.54-31.84,30.89-31.84"/>
            <path class="cls-17" d="M73.05,42.15c17.04,0,30.9,13.86,30.9,30.9v.66c0,16.7-13.54,30.25-30.25,30.25h0c-16.82,0-31.05-13.16-31.55-29.97-.52-17.47,13.54-31.84,30.89-31.84"/>
            <path class="cls-48" d="M72.67,41.77c17.04,0,30.9,13.86,30.9,30.9v.66c0,16.7-13.54,30.24-30.24,30.24h0c-16.82,0-31.05-13.16-31.55-29.97-.52-17.46,13.54-31.84,30.89-31.84"/>
            <path class="cls-94" d="M72.29,41.39c17.04,0,30.9,13.86,30.9,30.9v.66c0,16.7-13.54,30.24-30.24,30.24h0c-16.81,0-31.05-13.16-31.55-29.97-.52-17.46,13.54-31.84,30.89-31.84"/>
            <path class="cls-1" d="M71.91,41.01c17.04,0,30.9,13.86,30.9,30.9v.66c0,16.7-13.54,30.24-30.24,30.24h0c-16.81,0-31.04-13.16-31.54-29.96-.52-17.46,13.54-31.84,30.89-31.84"/>
            <path class="cls-81" d="M71.52,40.62c17.04,0,30.9,13.86,30.9,30.9v.66c0,16.7-13.54,30.24-30.24,30.24h0c-16.81,0-31.04-13.16-31.54-29.96-.52-17.46,13.54-31.84,30.89-31.84"/>
            <path class="cls-13" d="M71.14,40.24c17.04,0,30.9,13.86,30.9,30.9v.66c0,16.7-13.54,30.24-30.24,30.24h0c-16.81,0-31.04-13.16-31.54-29.96-.52-17.46,13.54-31.83,30.88-31.83"/>
            <path class="cls-14" d="M70.76,39.86c17.04,0,30.9,13.86,30.9,30.9v.66c0,16.7-13.54,30.24-30.24,30.24h0c-16.81,0-31.04-13.16-31.54-29.96-.52-17.46,13.54-31.83,30.88-31.83"/>
            <path class="cls-40" d="M70.38,39.48c17.04,0,30.9,13.86,30.9,30.9v.66c0,16.7-13.54,30.24-30.24,30.24h0c-16.81,0-31.04-13.16-31.54-29.96-.52-17.46,13.54-31.83,30.88-31.83"/>
            <path class="cls-72" d="M70,39.1c17.04,0,30.9,13.86,30.9,30.9v.66c0,16.7-13.54,30.24-30.24,30.24h0c-16.81,0-31.04-13.16-31.54-29.96-.52-17.46,13.54-31.83,30.88-31.83"/>
          </g>
        </g>
      </g>
    </g>
  </g>
</svg>